<?xml version="1.0" encoding="UTF-8"?>
<svg width="447px" height="443px" viewBox="0 0 447 443" version="1.1" xmlns="http://www.w3.org/2000/svg" xmlns:xlink="http://www.w3.org/1999/xlink">
    <title>imager-x-do-spaces-driver</title>
    <g id="Page-1" stroke="none" stroke-width="1" fill="none" fill-rule="evenodd">
        <g id="imager-x-do-spaces-driver" fill-rule="nonzero">
            <path d="M88,131 C88,143.238411 83.6291391,153.437086 75.1788079,162.178808 C66.4370861,170.92053 56.2384106,175 44,175 C31.7615894,175 21.5629139,170.629139 12.8211921,162.178808 C4.0794702,153.437086 0,143.238411 0,131 C0,118.761589 4.37086093,108.562914 12.8211921,99.8211921 C21.5629139,91.0794702 31.7615894,87 44,87 C56.2384106,87 66.4370861,91.3708609 75.1788079,99.8211921 C83.6291391,108.562914 88,118.761589 88,131 Z M208.891332,95.3558606 C204.213454,118.171067 200.12031,138.061246 196.904269,154.733897 C193.39586,171.406547 189.595084,188.956705 184.917206,207.384372 C182.578266,216.451954 178.77749,225.227033 173.514877,233.709609 C168.252264,242.484688 161.820181,249.797254 154.803364,255.93981 C147.201811,262.667371 139.015524,267.639916 130.244502,271.44245 C121.47348,275.244984 112.410091,277 103.054334,277 C94.5756792,277 87.851229,276.122492 82.5886158,274.367476 C77.3260026,272.61246 73.232859,270.564942 70.309185,267.932418 C67.385511,265.299894 65.6313066,262.374868 64.461837,259.449842 C63.2923674,256.524815 63,253.307286 63,250.089757 C63,244.82471 65.0465718,240.144667 68.847348,235.757128 C72.6481242,231.662091 77.9107374,229.614572 84.3428202,229.614572 C89.313066,229.614572 93.698577,231.077086 97.2069858,233.417107 C100.715395,236.04963 103.931436,239.267159 106.562743,242.777191 C109.194049,246.287223 111.532988,250.38226 113.287193,254.769799 C115.333765,259.157339 116.795602,262.667371 117.965071,265.299894 C121.765847,260.912355 125.566624,254.769799 128.782665,245.99472 C132.291074,237.512144 135.507115,226.104541 138.430789,211.771911 L163.282018,94.4783527 L136.384217,94.4783527 L139.600259,80.1457233 L166.205692,80.1457233 L168.544631,69.6156283 C170.591203,60.8405491 174.099612,52.3579725 179.069858,44.1678986 C184.332471,35.6853221 190.472186,28.3727561 197.781371,21.937698 C204.798189,15.5026399 212.984476,10.2375924 222.047865,6.14255544 C231.111255,2.04751848 240.467012,0 249.530401,0 C257.424321,0 264.148771,0.87750792 269.411384,2.34002112 C274.673997,3.80253432 278.767141,5.8500528 281.983182,8.7750792 C284.614489,11.407603 286.661061,14.0401267 287.538163,17.2576558 C288.415265,20.4751848 289,23.4002112 289,26.3252376 C289,28.3727561 288.707633,30.7127772 287.83053,33.0527983 C286.953428,35.6853221 285.783959,37.7328405 284.029754,39.780359 C281.983182,42.1203801 279.936611,43.875396 277.597671,45.0454065 C275.258732,46.2154171 272.042691,47.092925 267.65718,47.092925 C262.686934,47.092925 258.301423,45.9229145 254.793014,43.2903907 C251.284605,40.6578669 248.068564,37.4403379 245.729625,33.9303062 C243.098318,30.1277719 240.759379,26.032735 239.005175,21.6451954 C237.25097,17.2576558 235.789133,13.7476241 234.327296,11.1151003 C230.52652,15.5026399 227.018111,21.6451954 224.094437,30.1277719 C221.170763,38.3178458 217.954722,50.0179514 214.73868,64.3505808 L211.230272,80.1457233 L246.021992,80.1457233 L242.805951,94.4783527 L208.891332,94.4783527 L208.891332,95.3558606 Z" id="Shape" fill="#000000"></path>
            <g id="Ninja" transform="translate(155.700000, 136.328083)">
                <path d="M58.7,195.7 L39.7,214.7 L3.9,178.9 C-1.3,173.7 -1.3,165.2 3.9,159.9 C9.1,154.7 17.6,154.7 22.9,159.9 L58.7,195.7 Z" id="Path" fill="#5C626B"></path>
                <path d="M9.9,156.4 C7.7,157 5.6,158.1 3.9,159.9 C-1.3,165.1 -1.3,173.6 3.9,178.9 L39.7,214.7 L49.2,205.2 L13.4,169.4 C9.8,165.9 8.7,160.9 9.9,156.4 Z" id="Path" fill="#535860"></path>
                <polygon id="Path" fill="#DFE0E0" points="39.6 214.7 58.6 195.7 110.4 247.5 91.4 266.5"></polygon>
                <polygon id="Path" fill="#C9CACA" points="39.6 214.7 49.1 205.2 100.9 257 91.4 266.5"></polygon>
                <path d="M75.3,195.8 L39.7,231.4 C38.6,232.5 36.8,232.5 35.7,231.4 L23,218.7 C21.9,217.6 21.9,215.8 23,214.7 L58.6,179.1 C59.7,178 61.5,178 62.6,179.1 L75.3,191.8 C76.3,192.9 76.3,194.7 75.3,195.8 Z" id="Path" fill="#FBE067"></path>
                <path d="M48.9,218.3 L36.2,205.6 C35.1,204.5 35.1,202.7 36.2,201.6 L23.1,214.7 C22,215.8 22,217.6 23.1,218.7 L35.8,231.4 C36.9,232.5 38.7,232.5 39.8,231.4 L52.9,218.3 C51.7,219.3 49.9,219.3 48.9,218.3 Z" id="Path" fill="#E7CE5F"></path>
                <path d="M231.8,195.7 L250.8,214.7 L286.6,178.9 C291.8,173.7 291.8,165.2 286.6,159.9 C281.4,154.7 272.9,154.7 267.6,159.9 L231.8,195.7 Z" id="Path" fill="#5C626B"></path>
                <path d="M280.5,156.4 C282.7,157 284.8,158.1 286.5,159.9 C291.7,165.1 291.7,173.6 286.5,178.9 L250.7,214.7 L241.2,205.2 L277,169.4 C280.6,165.9 281.7,160.9 280.5,156.4 Z" id="Path" fill="#535860"></path>
                <polygon id="Path" fill="#DFE0E0" points="199 266.5 180.1 247.5 231.9 195.7 250.9 214.7"></polygon>
                <polygon id="Path" fill="#C9CACA" points="189.5 257 241.3 205.2 250.8 214.7 199 266.5"></polygon>
                <path d="M215.2,195.8 L250.8,231.4 C251.9,232.5 253.7,232.5 254.8,231.4 L267.5,218.7 C268.6,217.6 268.6,215.8 267.5,214.7 L231.9,179.1 C230.8,178 229,178 227.9,179.1 L215.2,191.8 C214.1,192.9 214.1,194.7 215.2,195.8 Z" id="Path" fill="#FBE067"></path>
                <path d="M241.6,218.3 L254.3,205.6 C255.4,204.5 255.4,202.7 254.3,201.6 L267.4,214.7 C268.5,215.8 268.5,217.6 267.4,218.7 L254.7,231.4 C253.6,232.5 251.8,232.5 250.7,231.4 L237.6,218.3 C238.8,219.3 240.5,219.3 241.6,218.3 Z" id="Path" fill="#E7CE5F"></path>
                <path d="M42.7,305.9 C42.7,249.3 88.6,203.4 145.2,203.4 C201.8,203.4 247.7,249.3 247.7,305.9 L42.7,305.9 Z" id="Path" fill="#494F57"></path>
                <path d="M247.7,305.9 L79.1,305.9 L176.7,208.3 C217.9,221.6 247.7,260.2 247.7,305.9 Z" id="Path" fill="#535860"></path>
                <path d="M113.2,305.9 L79.1,305.9 L176.7,208.3 C184.9,211 192.8,214.7 199.9,219.1 L113.2,305.9 Z" id="Path" fill="#CB556A"></path>
                <path d="M42.7,305.9 L211.3,305.9 L113.7,208.3 C72.6,221.6 42.7,260.2 42.7,305.9 Z" id="Path" fill="#5C626B"></path>
                <path d="M154.9,203.9 C151.8,203.6 148.5,203.4 145.3,203.4 C88.7,203.4 42.8,249.3 42.8,305.9 L62.1,305.9 C61.9,252.5 102.8,208.7 154.9,203.9 Z" id="Path" fill="#535860"></path>
                <path d="M177.2,305.9 L211.3,305.9 L113.7,208.3 C105.5,211 97.6,214.7 90.5,219.1 L177.2,305.9 Z" id="Path" fill="#E15F76"></path>
                <path d="M119.3,213.8 L113.7,208.2 C105.5,210.9 97.6,214.6 90.5,219 L98.6,227.1 C105,222 111.9,217.5 119.3,213.8 Z" id="Path" fill="#CB556A"></path>
                <path d="M255.4,110.1 C255.4,170.9 206.1,220.2 145.3,220.2 C84.5,220.2 35.2,170.9 35.2,110.1 C35.2,49.3 84.5,0 145.3,0 C206.1,0 255.4,49.2 255.4,110.1 Z" id="Path" fill="#5C626B"></path>
                <path d="M53.6,110.1 C53.6,52.4 98,5 154.5,0.4 C151.5,0.1 148.4,1.70530257e-13 145.3,1.70530257e-13 C84.5,1.70530257e-13 35.2,49.3 35.2,110.1 C35.2,170.9 84.5,220.2 145.3,220.2 C148.4,220.2 151.5,220.1 154.5,219.8 C98,215.1 53.6,167.8 53.6,110.1 Z" id="Path" fill="#535860"></path>
                <path d="M35.1,110.1 C35.1,112.8 35.2,115.5 35.4,118.1 C35.8,118.1 36.3,118.2 36.7,118.2 L253.8,118.2 C254.2,118.2 254.7,118.2 255.1,118.1 C255.3,115.4 255.4,112.8 255.4,110.1 C255.4,101.7 254.5,93.6 252.7,85.7 L37.8,85.7 C36,93.5 35.1,101.7 35.1,110.1 Z" id="Path" fill="#535860"></path>
                <path d="M185.6,156.9 L171.9,151.2 C154.9,144.1 135.7,144.1 118.7,151.2 L105,156.9 C88.6,163.7 70.5,151.7 70.5,133.9 C70.5,120.1 81.7,108.9 95.5,108.9 L195.4,108.9 C209.2,108.9 220.4,120.1 220.4,133.9 C220.1,151.6 202,163.8 185.6,156.9 Z" id="Path" fill="#F7C2AD"></path>
                <path d="M36.6,108.9 L253.7,108.9 C258,108.9 261.4,105.3 261.1,101 C260.1,89 257.2,77.5 252.7,66.9 C251.6,64.2 248.9,62.4 245.9,62.4 L44.5,62.4 C41.6,62.4 38.9,64.1 37.7,66.9 C33.1,77.5 30.3,89 29.3,101 C29,105.2 32.3,108.9 36.6,108.9 Z" id="Path" fill="#E15F76"></path>
                <path d="M47.8,101 C48.8,89 51.7,77.5 56.2,66.9 C57.3,64.2 60,62.4 63,62.4 L44.5,62.4 C41.6,62.4 38.9,64.1 37.7,66.9 C33.1,77.5 30.3,89 29.3,101 C29,105.3 32.4,108.9 36.7,108.9 L55.2,108.9 C50.8,108.9 47.4,105.2 47.8,101 Z" id="Path" fill="#CB556A"></path>
                <g id="details" transform="translate(6.500000, 120.800000)" fill="#494F57">
                    <path d="M9.5,51.3 L0,60.8 L6.6,67.4 L16.1,57.9 C17.9,56.1 17.9,53.1 16.1,51.3 C14.3,49.5 11.3,49.4 9.5,51.3 Z" id="Path"></path>
                    <path d="M20.4,62.1 L10.9,71.6 L17.5,78.2 L26.9,68.7 C28.7,66.9 28.7,63.9 26.9,62.1 C25.1,60.3 22.2,60.3 20.4,62.1 Z" id="Path"></path>
                    <path d="M267.9,51.3 C266.1,49.5 263.1,49.5 261.3,51.3 C259.5,53.1 259.5,56.1 261.3,57.9 L270.8,67.4 L277.4,60.8 L267.9,51.3 Z" id="Path"></path>
                    <path d="M257,62.1 C255.2,60.3 252.2,60.3 250.4,62.1 C248.6,63.9 248.6,66.9 250.4,68.7 L259.9,78.2 L266.5,71.6 L257,62.1 Z" id="Path"></path>
                    <path d="M178,16 C175.5,16 173.5,14 173.5,11.5 L173.5,4.5 C173.5,2 175.5,0 178,0 C180.5,0 182.5,2 182.5,4.5 L182.5,11.5 C182.4,14 180.4,16 178,16 Z" id="Path"></path>
                    <path d="M99.5,16 C97,16 95,14 95,11.5 L95,4.5 C95,2 97,0 99.5,0 C102,0 104,2 104,4.5 L104,11.5 C104,14 102,16 99.5,16 Z" id="Path"></path>
                </g>
            </g>
        </g>
    </g>
</svg>